<svg width="120" height="40" viewBox="0 0 120 40" fill="none" xmlns="http://www.w3.org/2000/svg">
  <path d="M25 8c-1.5 0-3 .5-4 1.5-.8.8-1.3 2-1.2 3.2.1.1.2.1.3.1 1.4 0 2.8-.5 3.7-1.4.8-.8 1.3-2 1.2-3.2 0-.1-.1-.2-.2-.2h.2zm-1 4c-2 0-3.8 1.1-4.8 1.1s-2.5-1-4.2-1c-2.1 0-4.1 1.2-5.2 3.1-2.2 3.8-.6 9.5 1.6 12.6 1.1 1.5 2.4 3.2 4.1 3.1 1.6-.1 2.2-1 4.2-1s2.5.9 4.2 1c1.7-.1 2.9-1.5 4-3 1.3-1.7 1.8-3.4 1.8-3.5 0-.1-3.5-1.3-3.5-5.2 0-3.4 2.8-5 2.9-5.1-1.6-2.3-4.1-2.6-5-2.7-.1 0-.1 0-.1-.4z" fill="white"/>
</svg>